{
  "accessors": [
    {
      "bufferView": 2,
      "componentType": 5126,
      "count": 257,
      "max": [
        146.5633544921875,
        789.8399658203125,
        39.3749885559082
      ],
      "min": [
        -39.3749885559082,
        0.0,
        -39.3749885559082
      ],
      "type": "VEC3"
    },
    {
      "bufferView": 2,
      "byteOffset": 3084,
      "componentType": 5126,
      "count": 257,
      "max": [
        0.9936660528182983,
        0.9405483603477478,
        0.9945845007896423
      ],
      "min": [
        -0.9801139831542969,
        -0.5350020527839661,
        -0.997974157333374
      ],
      "type": "VEC3"
    },
    {
      "bufferView": 1,
      "componentType": 5126,
      "count": 257,
      "max": [
        0.9995099902153015,
        7.815179824829102
      ],
      "min": [
        0.0004900000058114529,
        0.0004900000058114529
      ],
      "type": "VEC2"
    },
    {
      "bufferView": 0,
      "componentType": 5125,
      "count": 1320,
      "type": "SCALAR"
    },
    {
      "bufferView": 2,
      "byteOffset": 6168,
      "componentType": 5126,
      "count": 1200,
      "max": [
        345.8944396972656,
        985.1455688476563,
        330.1394348144531
      ],
      "min": [
        -306.84857177734375,
        462.7453918457031,
        -332.1168518066406
      ],
      "type": "VEC3"
    },
    {
      "bufferView": 2,
      "byteOffset": 20568,
      "componentType": 5126,
      "count": 1200,
      "max": [
        0.9984844326972961,
        0.9992387890815735,
        0.9999385476112366
      ],
      "min": [
        -0.9987167716026306,
        -0.9954658150672913,
        -0.9982009530067444
      ],
      "type": "VEC3"
    },
    {
      "bufferView": 1,
      "byteOffset": 2056,
      "componentType": 5126,
      "count": 1200,
      "max": [
        0.8202199935913086,
        0.9998599886894226
      ],
      "min": [
        0.10168000310659409,
        0.00014000000373926014
      ],
      "type": "VEC2"
    },
    {
      "bufferView": 0,
      "byteOffset": 5280,
      "componentType": 5125,
      "count": 3600,
      "type": "SCALAR"
    }
  ],
  "asset": {
    "extras": {
      "author": "Next Spring (https://sketchfab.com/NextSpring)",
      "license": "CC-BY-4.0 (http://creativecommons.org/licenses/by/4.0/)",
      "source": "https://sketchfab.com/3d-models/realistic-palm-tree-6-free-69fc08df1d5b4c17934ef874a4ad2274",
      "title": "Realistic Palm Tree 6 (Free)"
    },
    "generator": "Sketchfab-16.3.0",
    "version": "2.0"
  },
  "bufferViews": [
    {
      "buffer": 0,
      "byteLength": 19680,
      "name": "floatBufferViews",
      "target": 34963
    },
    {
      "buffer": 0,
      "byteLength": 11656,
      "byteOffset": 19680,
      "byteStride": 8,
      "name": "floatBufferViews",
      "target": 34962
    },
    {
      "buffer": 0,
      "byteLength": 34968,
      "byteOffset": 31336,
      "byteStride": 12,
      "name": "floatBufferViews",
      "target": 34962
    }
  ],
  "buffers": [
    {
      "byteLength": 66304,
      "uri": "scene.bin"
    }
  ],
  "images": [
    {
      "uri": "textures/palm_trunk_6_0Mat_baseColor.png"
    },
    {
      "uri": "textures/palm_leaf_2_5_1Mat_baseColor.png"
    }
  ],
  "materials": [
    {
      "doubleSided": true,
      "name": "palm_trunk_6_0Mat",
      "pbrMetallicRoughness": {
        "baseColorTexture": {
          "index": 0
        },
        "metallicFactor": 0.0,
        "roughnessFactor": 0.9577051494623774
      }
    },
    {
      "alphaMode": "MASK",
      "doubleSided": true,
      "name": "palm_leaf_2_5_1Mat",
      "pbrMetallicRoughness": {
        "baseColorTexture": {
          "index": 1
        },
        "metallicFactor": 0.0,
        "roughnessFactor": 0.9577051494623774
      }
    }
  ],
  "meshes": [
    {
      "name": "palm_trunk_6_0_palm_trunk_6_0Mat_0",
      "primitives": [
        {
          "attributes": {
            "NORMAL": 1,
            "POSITION": 0,
            "TEXCOORD_0": 2
          },
          "indices": 3,
          "material": 0,
          "mode": 4
        }
      ]
    },
    {
      "name": "palm_leaf_2_5_1_palm_leaf_2_5_1Mat_0",
      "primitives": [
        {
          "attributes": {
            "NORMAL": 5,
            "POSITION": 4,
            "TEXCOORD_0": 6
          },
          "indices": 7,
          "material": 1,
          "mode": 4
        }
      ]
    }
  ],
  "nodes": [
    {
      "children": [
        1
      ],
      "matrix": [
        1.0,
        0.0,
        0.0,
        0.0,
        0.0,
        2.220446049250313e-16,
        -1.0,
        0.0,
        0.0,
        1.0,
        2.220446049250313e-16,
        0.0,
        0.0,
        0.0,
        0.0,
        1.0
      ],
      "name": "Sketchfab_model"
    },
    {
      "children": [
        2
      ],
      "matrix": [
        0.009999999776482582,
        0.0,
        0.0,
        0.0,
        0.0,
        0.0,
        0.009999999776482582,
        0.0,
        0.0,
        -0.009999999776482582,
        0.0,
        0.0,
        0.0,
        0.0,
        0.0,
        1.0
      ],
      "name": "Palm_6.fbx"
    },
    {
      "children": [
        3
      ],
      "name": "RootNode"
    },
    {
      "children": [
        4,
        5
      ],
      "name": "palm_trunk_6_0"
    },
    {
      "mesh": 0,
      "name": "palm_trunk_6_0_palm_trunk_6_0Mat_0"
    },
    {
      "children": [
        6
      ],
      "name": "palm_leaf_2_5_1"
    },
    {
      "mesh": 1,
      "name": "palm_leaf_2_5_1_palm_leaf_2_5_1Mat_0"
    }
  ],
  "samplers": [
    {
      "magFilter": 9729,
      "minFilter": 9987,
      "wrapS": 10497,
      "wrapT": 10497
    }
  ],
  "scene": 0,
  "scenes": [
    {
      "name": "Sketchfab_Scene",
      "nodes": [
        0
      ]
    }
  ],
  "textures": [
    {
      "sampler": 0,
      "source": 0
    },
    {
      "sampler": 0,
      "source": 1
    }
  ]
}
